<?xml version="1.0" standalone="no"?>
<!DOCTYPE svg PUBLIC "-//W3C//DTD SVG 20010904//EN"
 "http://www.w3.org/TR/2001/REC-SVG-20010904/DTD/svg10.dtd">
<svg version="1.0" xmlns="http://www.w3.org/2000/svg"
 width="2024.000000pt" height="2024.000000pt" viewBox="0 0 2024.000000 2024.000000"
 preserveAspectRatio="xMidYMid meet">
<metadata>
Created by potrace 1.11, written by Peter Selinger 2001-2013
</metadata>
<g transform="translate(0.000000,2024.000000) scale(0.100000,-0.100000)"
fill="#000000" stroke="none">
<path d="M19155 12919 c-148 -38 -279 -71 -290 -73 -19 -4 -821 -204 -838
-209 -4 -1 32 -31 80 -67 112 -83 284 -255 345 -345 236 -351 199 -728 -109
-1123 -73 -93 -190 -214 -283 -291 -33 -28 -57 -51 -53 -51 33 0 312 80 422
121 430 160 744 426 923 782 69 138 135 360 152 512 3 28 8 70 11 95 14 109 6
366 -15 495 -27 164 -43 225 -59 224 -9 -1 -137 -32 -286 -70z"/>
<path d="M16328 12835 c-2 -1 -37 -5 -78 -9 -107 -8 -150 -17 -151 -30 -3 -25
5 -314 16 -631 3 -71 7 -202 10 -290 12 -400 17 -540 21 -544 2 -3 14 5 27 16
44 41 204 141 302 190 442 219 853 157 1187 -180 63 -64 195 -231 211 -267 4
-8 17 -31 28 -50 12 -19 33 -55 46 -80 l24 -45 -6 145 c-5 145 -7 174 -25 305
-18 134 -21 151 -55 290 -154 628 -534 1024 -1095 1143 -52 11 -125 24 -162
27 -66 7 -295 14 -300 10z"/>
<path d="M2586 11730 l-89 -38 -20 -53 c-11 -30 -35 -73 -53 -95 -51 -63 -91
-81 -254 -109 -19 -4 -237 -8 -485 -10 -420 -3 -564 -8 -625 -20 -14 -3 -37
-7 -52 -10 -15 -3 -65 -17 -110 -31 -265 -83 -484 -281 -581 -524 -32 -83 -74
-250 -62 -250 2 0 50 22 105 49 55 28 102 50 103 50 1 -1 15 5 30 12 27 12 28
13 23 88 -12 228 78 358 289 417 71 20 535 34 535 16 0 -5 -9 -54 -21 -108
-24 -118 -25 -120 -33 -164 -3 -19 -8 -46 -11 -60 -3 -14 -8 -38 -11 -55 -3
-16 -18 -95 -35 -175 -16 -80 -32 -158 -35 -175 -3 -16 -12 -64 -21 -105 -8
-41 -17 -86 -19 -100 -15 -83 -48 -230 -70 -305 -66 -228 -138 -295 -318 -295
l-71 0 -90 -89 c-49 -49 -91 -93 -92 -97 -2 -5 30 -9 70 -10 69 0 295 -8 594
-20 l142 -6 87 90 c47 50 86 93 87 97 1 4 -56 9 -128 10 -288 7 -355 9 -355
11 0 1 30 24 66 50 87 62 190 167 233 239 61 100 124 301 156 495 3 19 8 42
10 50 2 8 7 31 10 50 3 19 10 55 15 80 5 25 12 56 14 70 2 14 7 36 10 50 3 14
8 36 10 50 17 96 84 421 87 424 2 2 76 6 164 9 175 6 279 25 416 78 158 61
314 174 400 289 29 38 89 148 89 161 0 13 -5 11 -104 -31z"/>
<path d="M9825 11753 c-344 -72 -606 -338 -742 -753 -26 -80 -139 -605 -177
-823 -3 -15 -7 -35 -10 -45 -3 -9 -7 -33 -10 -52 -3 -19 -14 -78 -25 -130 -11
-52 -23 -108 -26 -125 -3 -16 -8 -75 -11 -130 -5 -91 -4 -104 18 -144 37 -72
65 -86 166 -86 71 0 99 5 150 27 71 29 178 97 236 148 135 119 144 129 152
178 4 26 8 53 10 60 4 20 -3 15 -69 -46 -92 -86 -213 -180 -266 -206 -50 -26
-104 -27 -128 -4 -27 27 -15 117 71 548 47 234 87 436 90 450 12 64 86 427 90
440 2 8 12 44 21 80 69 266 149 398 278 456 54 24 74 28 157 28 81 0 108 -5
184 -31 l89 -32 89 92 88 92 -52 11 c-77 16 -290 14 -373 -3z"/>
<path d="M11039 11435 c-67 -18 -152 -59 -219 -106 -51 -36 -59 -46 -65 -82
-4 -23 -9 -50 -11 -59 -4 -23 -1 -23 45 7 22 13 66 33 99 44 72 25 127 21 254
-15 51 -15 107 -30 123 -35 17 -4 73 -20 125 -34 117 -33 305 -42 415 -21 39
8 71 13 72 12 3 -3 -83 -93 -508 -536 -108 -113 -218 -227 -244 -255 -25 -27
-129 -135 -229 -240 -101 -104 -200 -208 -220 -230 -21 -22 -82 -86 -137 -142
-54 -56 -99 -103 -99 -106 0 -3 -7 -42 -16 -87 -8 -45 -13 -84 -10 -87 2 -3
60 9 128 26 287 71 386 74 640 21 264 -56 313 -63 423 -64 110 -1 110 -1 184
38 46 25 101 67 146 110 114 113 126 133 141 236 l5 34 -33 -38 c-39 -45 -125
-105 -188 -130 -59 -24 -161 -28 -269 -10 -47 8 -104 16 -126 19 -22 3 -49 7
-60 9 -11 2 -56 9 -100 16 -44 6 -91 14 -105 16 -61 13 -309 12 -385 0 -44 -8
-81 -13 -82 -12 -1 0 33 38 75 83 114 122 256 274 288 308 24 26 152 164 336
360 31 33 71 76 90 96 276 296 278 299 444 475 180 190 181 192 192 255 6 30
14 67 17 82 l7 28 -49 -20 c-158 -62 -433 -63 -688 -2 -49 12 -105 24 -124 27
-19 3 -44 9 -56 14 -31 12 -174 9 -226 -5z"/>
<path d="M2468 10916 c-92 -32 -195 -103 -305 -211 -68 -65 -95 -98 -99 -120
-2 -16 -7 -43 -10 -60 l-5 -30 31 35 c157 176 288 273 360 265 14 -1 30 -3 36
-4 25 -3 43 -65 39 -136 -3 -67 -13 -144 -20 -155 -2 -3 -6 -26 -10 -50 -3
-25 -10 -61 -15 -80 -5 -19 -12 -51 -15 -70 -3 -19 -8 -42 -10 -50 -2 -8 -6
-31 -9 -50 -7 -43 -9 -52 -45 -230 -17 -80 -48 -221 -71 -314 -22 -93 -40
-174 -40 -179 0 -9 227 -1 261 9 12 3 27 60 63 240 l47 235 66 112 c204 345
383 555 524 615 56 24 121 21 179 -9 24 -13 45 -18 47 -13 2 6 39 59 82 120
54 74 76 113 69 121 -16 20 -108 36 -177 31 -214 -17 -487 -275 -686 -653 -26
-49 -50 -92 -53 -95 -4 -5 1 43 13 100 31 155 55 282 60 315 8 52 7 167 -1
202 -28 120 -151 164 -306 109z"/>
<path d="M5690 10923 c-61 -21 -139 -74 -208 -141 -104 -103 -130 -139 -142
-200 -6 -31 -15 -72 -20 -89 -5 -18 -5 -33 -1 -33 4 0 29 31 55 70 120 174
241 247 342 205 49 -20 68 -38 110 -102 87 -130 150 -392 169 -708 5 -74 8
-411 4 -431 -5 -29 2 -36 29 -29 15 4 34 8 42 10 73 15 62 6 210 180 47 55 97
113 111 130 15 16 86 100 159 185 73 85 144 169 159 185 58 67 231 286 269
342 106 157 128 270 74 382 -25 52 -29 56 -62 56 -32 -1 -195 -16 -212 -21 -5
-1 -15 -2 -23 -3 -11 -1 -7 -13 15 -48 96 -150 58 -323 -135 -619 -85 -130
-277 -380 -371 -482 l-21 -24 0 99 c0 100 -11 347 -17 380 -2 10 -7 43 -10 74
-4 31 -9 67 -11 80 -3 13 -9 49 -15 79 -32 173 -105 330 -193 412 -77 72 -204
97 -307 61z"/>
<path d="M8075 10925 c-219 -48 -463 -255 -616 -523 -42 -72 -101 -230 -113
-302 -51 -286 32 -509 223 -603 61 -30 73 -32 171 -32 169 0 248 21 450 118
80 39 230 127 257 151 7 6 16 33 19 60 l7 48 -59 -40 c-193 -130 -394 -203
-543 -197 -169 7 -255 125 -260 358 l-2 87 58 1 c32 0 69 2 83 5 14 2 52 8 86
14 286 48 548 239 619 452 26 79 24 199 -5 266 -27 62 -91 123 -148 140 -50
15 -151 14 -227 -3z m94 -153 c60 -44 78 -180 40 -297 -12 -36 -26 -65 -30
-65 -5 0 -9 -7 -9 -15 0 -21 -98 -116 -153 -149 -95 -55 -202 -88 -363 -111
l-41 -5 8 57 c35 257 216 536 387 598 50 18 128 12 161 -13z"/>
<path d="M13082 10919 c-224 -63 -438 -241 -589 -489 -113 -185 -168 -449
-131 -626 23 -109 97 -225 182 -283 124 -86 334 -80 531 13 105 50 172 99 270
195 176 173 284 382 319 612 8 53 8 198 1 244 -23 137 -120 266 -244 323 -49
23 -70 27 -166 28 -79 1 -128 -4 -173 -17z m145 -103 c61 -32 109 -100 131
-186 57 -219 20 -535 -88 -752 -99 -199 -217 -304 -347 -314 -142 -9 -230 70
-267 242 -14 68 -16 335 -2 394 4 14 9 39 12 55 20 115 91 282 165 391 61 90
149 162 220 182 46 13 142 6 176 -12z"/>
<path d="M14205 10926 c-60 -20 -142 -63 -205 -109 -91 -67 -198 -176 -204
-208 -4 -16 -9 -44 -12 -61 -6 -31 1 -26 99 69 103 99 205 169 263 179 36 7
82 -13 90 -38 9 -29 7 -75 -6 -145 -6 -35 -13 -75 -16 -90 -2 -16 -7 -39 -10
-53 -3 -14 -8 -36 -10 -50 -3 -14 -11 -54 -19 -90 -8 -36 -16 -81 -20 -100 -3
-19 -10 -55 -15 -80 -5 -25 -12 -56 -14 -70 -2 -14 -7 -36 -10 -50 -3 -14 -8
-36 -10 -50 -9 -51 -25 -127 -41 -195 -9 -38 -18 -77 -20 -85 -10 -46 -47
-198 -51 -213 -6 -19 -3 -19 215 -2 62 5 58 3 65 35 41 217 91 441 102 462 27
52 153 258 212 346 193 286 367 438 479 417 62 -11 77 -90 44 -235 -5 -25 -12
-58 -15 -75 -3 -16 -22 -111 -42 -210 -20 -99 -38 -191 -40 -205 -3 -14 -16
-83 -30 -155 -34 -168 -35 -268 -4 -322 34 -62 70 -78 170 -78 64 1 99 7 142
24 82 32 190 106 284 195 66 61 83 83 89 113 3 21 9 49 12 63 5 19 -17 3 -93
-70 -109 -106 -176 -155 -234 -175 -71 -24 -106 -16 -124 27 -13 30 -13 52 1
128 3 19 7 42 8 50 1 8 10 51 19 95 81 397 136 691 139 745 8 138 -29 226
-110 262 -38 17 -60 19 -122 15 -147 -9 -292 -105 -465 -307 -55 -65 -176
-251 -226 -347 -24 -46 -47 -83 -51 -83 -7 0 -6 12 6 70 22 104 65 336 70 385
4 33 8 70 10 82 10 64 -37 161 -90 186 -38 18 -158 20 -210 3z"/>
<path d="M16530 10921 c-36 -10 -87 -27 -113 -39 -156 -69 -344 -246 -462
-436 -44 -71 -112 -222 -121 -269 -2 -12 -10 -51 -18 -87 -17 -82 -17 -216 0
-297 27 -131 117 -247 232 -301 50 -23 70 -27 162 -27 58 0 124 3 147 7 127
22 352 123 521 235 44 30 58 50 51 76 0 1 4 14 10 30 6 15 9 27 6 27 -2 0 -38
-22 -79 -49 -184 -120 -378 -190 -516 -186 -157 4 -233 84 -262 275 -7 47 -12
104 -10 128 l3 42 57 1 c31 0 66 2 77 4 11 2 40 7 65 10 208 30 422 142 545
286 62 73 93 133 110 215 32 152 -21 294 -130 351 -47 24 -196 26 -275 4z
m104 -145 c38 -25 59 -73 64 -152 5 -87 -16 -167 -63 -239 -34 -51 -52 -68
-115 -116 -92 -69 -269 -126 -410 -133 -23 -1 -25 2 -22 34 18 197 168 474
308 571 83 57 183 72 238 35z"/>
<path d="M4570 10913 c-297 -53 -532 -220 -725 -513 -130 -198 -189 -376 -194
-583 -4 -170 37 -265 143 -333 38 -24 178 -29 238 -9 210 73 437 311 594 624
25 50 50 91 55 91 6 0 8 -8 5 -17 -3 -10 -10 -45 -16 -78 -5 -33 -12 -69 -14
-80 -52 -257 -57 -287 -58 -362 -3 -127 65 -193 197 -193 127 0 273 81 442
243 54 52 64 67 73 114 7 30 10 56 8 58 -2 2 -44 -36 -93 -84 -142 -139 -212
-183 -288 -185 -97 -2 -98 33 -12 454 11 52 67 339 71 360 7 39 42 193 75 325
38 156 39 161 26 163 -39 4 -506 9 -527 5z m115 -168 c50 -14 94 -30 99 -35 5
-5 -3 -69 -18 -152 -27 -142 -28 -144 -102 -268 -107 -180 -221 -327 -359
-465 -131 -131 -190 -169 -263 -170 -52 0 -85 31 -103 97 -10 41 -13 167 -5
218 3 14 7 43 11 65 24 161 128 429 216 560 118 173 284 221 524 150z"/>
<path d="M18000 10618 c0 -19 75 -262 114 -370 275 -759 698 -1176 1261 -1244
85 -10 274 -4 355 11 14 3 41 7 60 10 152 25 450 138 450 171 0 9 -16 77 -36
152 -20 75 -38 144 -39 152 -2 8 -13 49 -24 90 -11 41 -40 154 -65 250 -127
497 -198 766 -203 770 -2 3 -16 -8 -30 -25 -50 -59 -149 -159 -218 -218 -386
-334 -820 -373 -1230 -111 -119 75 -300 239 -370 335 -14 18 -25 30 -25 27z"/>
<path d="M567 8982 c-2 -4 -3 -52 -2 -107 l0 -100 8388 -2 8387 -2 0 109 0
109 -8385 0 c-4611 0 -8386 -3 -8388 -7z"/>
<path d="M9375 8301 c-75 -34 -139 -116 -164 -209 -12 -41 -12 -42 -56 -42
-41 0 -45 -3 -51 -27 -3 -16 -7 -34 -10 -40 -2 -9 10 -13 41 -13 25 0 45 -3
45 -7 0 -14 -115 -584 -135 -670 -5 -22 -2 -23 49 -23 59 0 58 -1 72 86 3 21
12 66 19 99 8 33 16 71 19 85 2 14 23 114 45 222 23 109 41 200 41 203 0 3 36
5 80 5 44 0 80 1 80 3 1 1 3 19 6 40 l6 37 -77 0 -77 0 7 33 c10 46 46 107 77
130 29 22 91 28 140 14 25 -7 28 -4 36 25 5 18 7 38 5 44 -10 28 -140 32 -198
5z"/>
<path d="M16376 8218 c-10 -51 -22 -109 -27 -128 l-9 -35 -82 0 c-67 0 -93 -5
-133 -24 -163 -80 -302 -368 -239 -494 23 -46 53 -67 99 -67 74 0 177 79 253
193 14 20 26 36 28 34 2 -2 -5 -44 -16 -93 -29 -129 -30 -126 32 -122 l51 3
14 70 c8 39 29 144 48 235 19 91 36 176 39 190 3 14 18 92 35 174 17 82 31
151 31 153 0 1 -24 3 -54 3 l-53 0 -17 -92z m-63 -247 c10 -1 9 -21 -4 -81
-16 -75 -154 -248 -236 -297 -42 -25 -82 -25 -84 0 -13 112 39 246 125 323 54
49 92 64 151 59 22 -2 43 -4 48 -4z"/>
<path d="M7587 8253 c-2 -5 -8 -26 -12 -48 -12 -67 -13 -73 -60 -300 -49 -238
-85 -414 -85 -421 0 -9 333 -3 382 7 125 26 236 115 298 240 89 174 81 383
-16 469 -56 49 -115 60 -320 60 -101 0 -185 -3 -187 -7z m339 -92 c134 -39
167 -200 79 -386 -54 -116 -122 -177 -225 -203 -47 -11 -220 -16 -220 -5 0 4
25 130 56 278 30 149 58 285 61 304 l6 33 106 -6 c58 -3 120 -9 137 -15z"/>
<path d="M17317 8228 c-3 -18 -13 -71 -22 -118 -15 -83 -43 -245 -49 -285 -4
-27 -16 -95 -22 -123 -4 -22 -2 -23 37 -20 l42 3 24 105 c20 92 85 384 99 448
4 21 1 22 -50 22 -52 0 -53 -1 -59 -32z"/>
<path d="M17669 8240 c-1 -11 -2 -23 -3 -27 -9 -35 -17 -74 -21 -103 -3 -19
-8 -42 -10 -50 -3 -13 -9 -43 -20 -115 -12 -79 -37 -224 -41 -242 -6 -21 -3
-23 34 -23 30 0 42 5 46 18 9 32 25 97 30 122 2 14 25 117 50 228 25 112 46
206 46 208 0 2 -25 4 -55 4 -48 0 -55 -3 -56 -20z"/>
<path d="M8386 8233 c-2 -10 -7 -33 -11 -50 l-7 -33 56 0 c48 0 56 3 56 19 0
10 3 33 6 50 l7 31 -51 0 c-40 0 -52 -4 -56 -17z"/>
<path d="M10848 8152 c-10 -2 -19 -17 -23 -35 -13 -67 -14 -67 -59 -67 -42 0
-44 -1 -54 -40 l-10 -40 44 0 c24 0 44 -4 44 -9 0 -6 -13 -77 -29 -158 -16
-81 -32 -166 -34 -189 -10 -85 46 -144 136 -144 65 0 82 11 85 55 l3 36 -36
-7 c-25 -4 -42 -1 -61 11 -32 21 -33 11 21 274 14 68 25 125 25 127 0 2 31 4
69 4 l69 0 6 31 c3 17 6 35 6 40 0 5 -30 9 -66 9 l-66 0 6 38 c4 20 9 45 12
54 4 14 -2 16 -33 15 -21 -1 -46 -3 -55 -5z"/>
<path d="M12250 8150 c-5 -3 -11 -19 -15 -35 -15 -66 -14 -65 -61 -65 -24 0
-44 -4 -44 -10 0 -16 -2 -23 -11 -47 -8 -22 -6 -23 37 -23 l46 0 -7 -42 c-9
-53 -11 -62 -24 -121 -6 -26 -14 -64 -17 -85 -3 -20 -9 -53 -13 -72 -24 -111
24 -175 134 -179 61 -2 70 4 83 50 l9 35 -47 0 c-79 -1 -90 21 -66 134 11 50
56 273 56 276 0 2 32 4 70 4 49 0 70 4 71 13 0 6 3 24 5 40 l5 27 -67 0 -66 0
5 29 c3 16 9 41 13 55 6 26 5 26 -41 24 -26 -2 -51 -5 -55 -8z"/>
<path d="M8725 8046 c-66 -30 -110 -99 -100 -157 6 -31 22 -69 34 -79 3 -3 39
-40 79 -83 79 -84 90 -118 51 -153 -30 -27 -119 -23 -191 9 l-58 26 -11 -42
c-9 -36 -9 -43 7 -54 31 -23 86 -35 169 -38 64 -3 88 0 123 17 50 24 80 62 88
112 9 61 -13 104 -102 198 -89 94 -100 120 -64 153 28 25 104 27 164 3 27 -10
50 -17 52 -15 2 1 4 23 6 47 l3 45 -45 12 c-61 16 -168 15 -205 -1z"/>
<path d="M9872 8041 c-39 -20 -147 -124 -170 -163 -9 -16 -19 -28 -23 -28 -6
0 23 152 36 188 4 10 -9 12 -52 10 l-57 -3 -13 -60 c-6 -33 -14 -73 -17 -90
-6 -31 -72 -352 -81 -392 -5 -22 -2 -23 48 -23 l53 0 12 48 c6 26 13 61 17 77
3 17 7 40 10 52 5 27 100 158 164 226 56 60 85 76 132 72 22 -3 36 1 36 8 1 7
4 31 8 55 l8 42 -39 0 c-22 -1 -54 -9 -72 -19z"/>
<path d="M11370 8044 c-57 -21 -131 -74 -168 -122 -123 -159 -156 -352 -74
-429 69 -64 207 7 318 163 36 51 40 50 24 -6 -9 -35 -15 -62 -26 -132 l-7 -38
55 0 c44 0 54 3 55 18 1 9 9 51 18 92 9 41 18 84 21 95 58 288 72 360 71 361
-1 1 -56 5 -122 8 -97 5 -129 3 -165 -10z m144 -73 c15 -1 17 -7 13 -43 -8
-64 -23 -95 -79 -166 -88 -113 -176 -192 -212 -192 -28 0 -47 42 -40 91 24
175 150 323 269 314 17 -1 38 -3 49 -4z"/>
<path d="M13894 8034 c-52 -28 -108 -81 -163 -154 -18 -25 -30 -36 -27 -24 8
25 36 172 36 185 0 5 -24 9 -53 9 -43 0 -53 -3 -54 -17 -1 -10 -18 -97 -38
-193 -39 -186 -39 -185 -56 -270 -6 -30 -13 -63 -15 -72 -5 -16 2 -18 50 -18
l55 0 7 38 c31 176 33 182 133 301 94 112 140 147 171 131 24 -13 24 -19 5
-109 -8 -39 -17 -83 -20 -98 -3 -16 -16 -80 -28 -143 l-24 -115 50 -3 c27 -2
51 -1 53 1 2 2 13 50 25 108 18 88 27 112 60 156 59 79 159 182 192 200 26 13
31 13 45 -1 14 -13 11 -36 -27 -223 -23 -114 -44 -216 -47 -225 -5 -16 2 -18
50 -18 59 0 61 3 72 67 4 24 20 101 40 193 3 14 7 39 10 55 2 17 9 51 15 77
29 129 3 188 -83 188 -69 -1 -171 -75 -238 -173 -31 -46 -42 -47 -29 -5 42
146 -39 220 -167 152z"/>
<path d="M15615 8053 c-45 -12 -115 -73 -185 -163 -24 -30 -40 -46 -37 -35 4
11 8 31 11 45 2 14 9 45 15 70 19 80 18 81 -40 78 l-52 -3 -43 -210 c-24 -115
-46 -226 -49 -245 -6 -33 -10 -52 -21 -92 -5 -16 2 -18 50 -18 l55 0 12 58
c18 86 17 85 18 109 1 24 105 167 174 240 51 54 86 74 117 66 21 -6 22 -10 17
-57 -3 -28 -8 -60 -11 -71 -5 -26 -47 -223 -52 -250 -2 -11 -7 -37 -10 -57
l-7 -38 51 0 c40 0 52 4 56 18 4 15 48 221 60 282 2 14 9 45 15 70 14 60 13
151 -2 171 -26 35 -81 47 -142 32z"/>
<path d="M16790 8051 c-131 -40 -231 -180 -255 -354 -14 -105 46 -207 131
-223 58 -11 156 3 203 28 83 44 156 148 186 265 36 136 2 240 -88 278 -38 16
-134 19 -177 6z m133 -100 c88 -86 -12 -367 -142 -396 -46 -10 -99 11 -117 48
-25 48 -14 172 22 244 30 58 91 119 128 126 35 8 90 -3 109 -22z"/>
<path d="M8345 8038 c-2 -7 -27 -128 -55 -268 -28 -140 -53 -263 -56 -272 -5
-16 2 -18 50 -18 l55 0 7 38 c4 20 9 46 11 57 2 11 6 31 9 45 3 14 21 102 40
195 20 94 38 185 41 203 l5 32 -51 0 c-33 0 -53 -5 -56 -12z"/>
<path d="M10119 8043 c-1 -10 -1 -11 -39 -193 -18 -85 -34 -158 -36 -161 -8
-13 -16 -131 -10 -154 16 -63 90 -84 165 -46 45 24 111 89 152 154 17 26 32
47 34 47 2 0 -9 -54 -40 -187 -5 -22 -2 -23 49 -23 62 0 56 -7 80 110 8 41 27
129 41 195 14 66 28 134 31 150 2 17 9 46 14 65 14 51 15 50 -44 50 -61 0 -58
4 -76 -100 -17 -94 -32 -126 -124 -247 -81 -108 -123 -141 -156 -123 -11 6
-20 15 -20 20 0 5 20 107 45 227 25 119 45 219 45 220 0 7 -110 2 -111 -4z"/>
<path d="M12630 8046 c0 -8 -61 -303 -70 -336 -40 -152 -14 -240 69 -240 75 1
161 64 231 171 32 47 39 36 20 -31 -6 -19 -13 -48 -16 -65 -2 -16 -7 -38 -10
-47 -5 -16 2 -18 50 -18 58 0 59 1 70 60 2 14 14 69 25 124 12 54 23 108 25
120 13 64 46 218 52 240 6 26 5 26 -49 26 l-55 0 -16 -67 c-8 -38 -18 -83 -21
-102 -9 -54 -147 -245 -209 -289 -28 -20 -38 -22 -55 -13 -25 14 -25 16 -6
106 9 39 17 82 20 97 3 14 16 78 30 142 14 64 25 118 25 121 0 3 -25 5 -55 5
-30 0 -55 -2 -55 -4z"/>
<path d="M14648 7983 c-47 -201 -81 -400 -74 -436 20 -106 139 -103 244 5 24
24 56 64 73 89 l30 44 -5 -35 c-3 -19 -12 -65 -19 -102 l-15 -68 54 0 c60 0
54 -8 79 115 9 44 27 130 40 192 14 61 27 124 29 140 9 49 17 87 22 106 5 15
-2 17 -49 17 l-55 0 -16 -71 c-9 -39 -16 -78 -16 -86 0 -23 -28 -73 -93 -163
-95 -132 -140 -170 -176 -150 -12 6 -21 14 -21 19 0 12 14 83 54 275 20 93 36
171 36 173 0 1 -24 3 -53 3 l-53 0 -16 -67z"/>
<path d="M17185 7568 c-2 -7 -6 -30 -10 -50 l-6 -38 54 0 c36 0 54 4 55 13 0
6 4 29 8 50 l7 37 -52 0 c-33 0 -53 -5 -56 -12z"/>
<path d="M17535 7568 c-2 -7 -6 -30 -10 -50 l-6 -38 50 0 c27 0 52 3 55 8 2 4
7 26 11 50 l6 42 -51 0 c-32 0 -52 -5 -55 -12z"/>
</g>
</svg>
